{"title":"How.To.Make.Money.Selling.Drugs.2012 WEBRip XViD juggs","uid":8618128,"size":742600729,"categoryP":"video","categoryS":"movies","magnet":"?xt=urn:btih:cedb6ac6dd7c9bedaa606101bd128498fbcd5238&amp;dn=How.To.Make.Money.Selling.Drugs.2012+WEBRip+XViD+juggs&amp;tr=udp%3A%2F%2Ftracker.openbittorrent.com%3A80&amp;tr=udp%3A%2F%2Fopen.demonii.com%3A1337&amp;tr=udp%3A%2F%2Ftracker.coppersurfer.tk%3A6969&amp;tr=udp%3A%2F%2Fexodus.desync.com%3A6969","seeders":11,"leechers":1,"uploader":"juggs99","files":3,"time":1372296123,"description":"Source : JHD(Thanks)\n &lt;a href=&quot;\nhttp://www.imdb.com/title/tt1276962/&quot; rel=&quot;nofollow&quot; target=&quot;_NEW&quot;&gt;\nhttp://www.imdb.com/title/tt1276962/&lt;/a&gt;\n\nFormat : AVI\nFormat/Info : Audio Video Interleave\nFile size : 697 MiB\nDuration : 1h 34mn\nOverall bit rate : 1 028 Kbps\nWriting library : VirtualDub build 32842/release\n\nVideo\nID : 0\nFormat : MPEG-4 Visual\nFormat profile : Advanced Simple@L5\nFormat settings, BVOP : 2\nFormat settings, QPel : No\nFormat settings, GMC : No warppoints\nFormat settings, Matrix : Default (H.263)\nMuxing mode : Packed bitstream\nCodec ID : XVID\nCodec ID/Hint : XviD\nDuration : 1h 34mn\nBit rate : 891 Kbps\nWidth : 640 pixels\nHeight : 352 pixels\nDisplay aspect ratio : 16:9\nFrame rate : 23.976 fps\nColor space : YUV\nChroma subsampling : 4:2:0\nBit depth : 8 bits\nScan type : Progressive\nCompression mode : Lossy\nBits/(Pixel*Frame) : 0.165\nStream size : 604 MiB (87%)\nWriting library : XviD 1.2.1 (UTC 2008-12-04)\n\nAudio\nID : 1\nFormat : MPEG Audio\nFormat version : Version 1\nFormat profile : Layer 3\nMode : Joint stereo\nMode extension : MS Stereo\nCodec ID : 55\nCodec ID/Hint : MP3\nDuration : 1h 34mn\nBit rate mode : Constant\nBit rate : 128 Kbps\nChannel(s) : 2 channels\nSampling rate : 44.1 KHz\nCompression mode : Lossy\nStream size : 86.8 MiB (12%)\nAlignment : Split accross interleaves\nInterleave, duration : 42 ms (1.00 video frame)\nInterleave, preload duration : 500 ms\n &lt;a href=&quot;\nhttp://img96.imageshack.us/img96/2703/3r0v.png&quot; rel=&quot;nofollow&quot; target=&quot;_NEW&quot;&gt;\nhttp://img96.imageshack.us/img96/2703/3r0v.png&lt;/a&gt; &lt;a href=&quot;\nhttp://img22.imageshack.us/img22/5580/hwu.png&quot; rel=&quot;nofollow&quot; target=&quot;_NEW&quot;&gt;\nhttp://img22.imageshack.us/img22/5580/hwu.png&lt;/a&gt; &lt;a href=&quot;\nhttp://img546.imageshack.us/img546/8240/nt9.png&quot; rel=&quot;nofollow&quot; target=&quot;_NEW&quot;&gt;\nhttp://img546.imageshack.us/img546/8240/nt9.png&lt;/a&gt;","torrent":{"xt":"urn:btih:cedb6ac6dd7c9bedaa606101bd128498fbcd5238","amp;dn":"How.To.Make.Money.Selling.Drugs.2012+WEBRip+XViD+juggs","amp;tr":["udp%3A%2F%2Ftracker.openbittorrent.com%3A80","udp%3A%2F%2Fopen.demonii.com%3A1337","udp%3A%2F%2Ftracker.coppersurfer.tk%3A6969","udp%3A%2F%2Fexodus.desync.com%3A6969"],"infoHash":"cedb6ac6dd7c9bedaa606101bd128498fbcd5238","infoHashBuffer":{"type":"Buffer","data":[206,219,106,198,221,124,155,237,170,96,97,1,189,18,132,152,251,205,82,56]},"announce":[],"urlList":[]}}